<?xml version="1.0" encoding="UTF-8" standalone="no"?> <svg xmlns="http://www.w3.org/2000/svg" viewBox="0 0 64 64"><g id="Layer_82" data-name="Layer 82"><path d="M61.41,58.59,49.15,46.32l6.63-6.63A2,2,0,0,0,53,36.86l-2.07,2.07L44,32,55.9,20.05a2,2,0,0,0,.46-.71L61.87,4.71A2,2,0,0,0,59.3,2.13L44.66,7.64A2,2,0,0,0,44,8.1L32,20,20.05,8.1a1.85,1.85,0,0,0-.71-.46L4.7,2.13A2,2,0,0,0,2.13,4.7L7.64,19.34a1.85,1.85,0,0,0,.46.71l12,12-6.93,6.93-2.07-2.07a2,2,0,0,0-2.83,2.83l6.63,6.63L2.59,58.59a2,2,0,0,0,2.82,2.82L17.68,49.15l6.63,6.63A2,2,0,0,0,27.14,53l-2.07-2.07L32,44l6.93,6.93L36.86,53a2,2,0,0,0,2.83,2.83l6.63-6.63L58.59,61.41A2,2,0,0,0,61.41,58.59ZM11.23,17.53,7.43,7.43l10.1,3.8L29.17,22.87l-6.29,6.3Zm7.86,27.38L16,41.76l8.31-8.32.06-.06L46.47,11.23l10.1-3.8-3.8,10.1-13,13a.17.17,0,0,0-.06.06l-9.06,9.06a.17.17,0,0,0-.06.06l-8.32,8.31Zm15.74-3.79,6.29-6.29,6.93,6.93-6.29,6.29Z"/></g></svg>