<?xml version="1.0" encoding="UTF-8" standalone="no"?> <svg width="101" height="101" viewBox="0 0 101 101" fill="none" xmlns="http://www.w3.org/2000/svg">
<path d="M8.58401 61.5537H17.211C18.039 61.5537 18.711 60.8817 18.711 60.0537C18.711 59.2257 18.039 58.5537 17.211 58.5537H8.58401C7.75601 58.5537 7.08401 59.2257 7.08401 60.0537C7.08401 60.8817 7.75601 61.5537 8.58401 61.5537Z" fill="black" stroke="black" stroke-width="2.2"/>
<path d="M8.543 73.6387H27.892C28.72 73.6387 29.392 72.9667 29.392 72.1387C29.392 71.3107 28.72 70.6387 27.892 70.6387H8.543C7.715 70.6387 7.043 71.3107 7.043 72.1387C7.043 72.9667 7.715 73.6387 8.543 73.6387Z" fill="black" stroke="black" stroke-width="2.2"/>
<path d="M41.372 82.7227H8.58401C7.75601 82.7227 7.08401 83.3947 7.08401 84.2227C7.08401 85.0507 7.75601 85.7227 8.58401 85.7227H41.372C42.2 85.7227 42.872 85.0507 42.872 84.2227C42.872 83.3947 42.2 82.7227 41.372 82.7227Z" fill="black" stroke="black" stroke-width="2.2"/>
<path d="M76.947 58.5539H71.387L59.139 28.9409C58.908 28.3799 58.361 28.0139 57.753 28.0139C40.757 28.0139 36.003 12.2179 35.81 11.5479C35.664 11.0359 35.259 10.6409 34.745 10.5069C34.229 10.3739 33.684 10.5219 33.307 10.8989L14.251 29.9549L8.43299 35.4029C8.13599 35.6809 7.96399 36.0679 7.95799 36.4749C7.95199 36.8819 8.11199 37.2749 8.39999 37.5619L56.426 85.2839C56.707 85.5629 57.087 85.7199 57.484 85.7199H93.33C94.158 85.7199 94.83 85.0479 94.83 84.2199V76.4389C94.831 66.5759 86.809 58.5539 76.947 58.5539ZM33.794 14.6539C35.922 19.5199 42.311 30.5039 56.744 30.9959L59.175 36.8749H51.051C50.223 36.8749 49.551 37.5469 49.551 38.3749C49.551 39.2029 50.223 39.8749 51.051 39.8749H60.209C60.277 39.8749 60.342 39.8639 60.407 39.8549L62.423 44.7299H53.707C52.879 44.7299 52.207 45.4019 52.207 46.2299C52.207 47.0579 52.879 47.7299 53.707 47.7299H62.865C63.127 47.7299 63.37 47.6569 63.584 47.5379L65.671 52.5829H57.075C56.247 52.5829 55.575 53.2549 55.575 54.0829C55.575 54.9109 56.247 55.5829 57.075 55.5829H66.234C66.456 55.5829 66.665 55.5319 66.855 55.4449L68.998 60.6269C69.229 61.1879 69.776 61.5539 70.384 61.5539H76.946C84.646 61.5539 90.998 67.4319 91.754 74.9359L61.58 74.8989L17.416 31.0319L33.794 14.6539ZM91.831 82.7189H58.103L11.619 36.5299L15.262 33.1199L59.906 77.4629C60.186 77.7409 60.565 77.8979 60.961 77.8989L91.832 77.9369L91.831 82.7189Z" fill="black" stroke="black" stroke-width="2.2"/>
</svg>
