<?xml version="1.0" encoding="UTF-8" standalone="no"?> <svg xmlns="http://www.w3.org/2000/svg" viewBox="0 0 64 64"><g id="Layer_34" data-name="Layer 34"><path d="M22.59,38.66c.51,12.48,18.32,12.47,18.82,0C40.9,26.18,23.1,26.18,22.59,38.66ZM37.18,34.9l-4.47,4.47a1,1,0,0,1-.71.29A1,1,0,0,1,31.29,38l4.47-4.47A1,1,0,0,1,37.18,34.9Z"/><path d="M58.76,28.34a9.24,9.24,0,0,0-9.21-8.28H43.41V15.68h8.34a8,8,0,0,0,7.94-7.94,1,1,0,0,0-1-1H5.31a1,1,0,0,0-1,1,8,8,0,0,0,7.94,7.94h8.34v4.38H14.45a9.24,9.24,0,0,0-9.21,8.29L3,52.38a4.43,4.43,0,0,0,4.38,4.88H56.59A4.41,4.41,0,0,0,61,52.4ZM41.41,15.68v4.38H22.59V15.68Zm-20.82,23c.63-15.14,22.2-15.13,22.82,0C42.79,53.79,21.22,53.8,20.59,38.66Z"/></g></svg>